<mxfile host="drawio-plugin" modified="2025-03-08T19:32:56.937Z" agent="5.0 (Windows NT 6.2; Win64; x64) AppleWebKit/537.36 (KHTML, like Gecko) Chrome/98.0.4758.102 Safari/537.36" etag="tkkjfPiDvjyhhFzaFQh_" version="20.5.3" type="embed"><diagram id="23iRSUPoRavnBvh4doch" name="Домены"><mxGraphModel dx="1736" dy="1902" grid="1" gridSize="10" guides="1" tooltips="1" connect="1" arrows="1" fold="1" page="1" pageScale="1" pageWidth="827" pageHeight="1169" math="0" shadow="0"><root><mxCell id="0"/><mxCell id="1" parent="0"/><mxCell id="2" value="Медицина" style="rounded=0;whiteSpace=wrap;html=1;" parent="1" vertex="1"><mxGeometry x="110" y="140" width="120" height="60" as="geometry"/></mxCell><mxCell id="14" style="edgeStyle=orthogonalEdgeStyle;rounded=0;orthogonalLoop=1;jettySize=auto;html=1;" parent="1" source="3" target="2" edge="1"><mxGeometry relative="1" as="geometry"/></mxCell><mxCell id="24" value="Данные об оплате мед услуг&lt;br&gt;Продукты кредитования на услуги" style="edgeLabel;html=1;align=center;verticalAlign=middle;resizable=0;points=[];" vertex="1" connectable="0" parent="14"><mxGeometry x="-0.16" y="3" relative="1" as="geometry"><mxPoint x="-7" y="-3" as="offset"/></mxGeometry></mxCell><mxCell id="3" value="Финансы" style="rounded=0;whiteSpace=wrap;html=1;" parent="1" vertex="1"><mxGeometry x="455" y="140" width="120" height="60" as="geometry"/></mxCell><mxCell id="21" value="скорринг клиентов" style="edgeStyle=orthogonalEdgeStyle;rounded=0;orthogonalLoop=1;jettySize=auto;html=1;" parent="1" source="4" target="3" edge="1"><mxGeometry relative="1" as="geometry"/></mxCell><mxCell id="4" value="Клиенты" style="rounded=0;whiteSpace=wrap;html=1;" parent="1" vertex="1"><mxGeometry x="455" y="360" width="120" height="60" as="geometry"/></mxCell><mxCell id="12" value="Данные о потребностях в &lt;br&gt;лекарственных средствах&lt;br&gt;&lt;br&gt;Данные о новых &lt;br&gt;лекарственных стредствах" style="edgeStyle=orthogonalEdgeStyle;rounded=0;orthogonalLoop=1;jettySize=auto;html=1;" parent="1" source="5" target="2" edge="1"><mxGeometry relative="1" as="geometry"><mxPoint as="offset"/></mxGeometry></mxCell><mxCell id="5" value="Фармацевтика" style="rounded=0;whiteSpace=wrap;html=1;" parent="1" vertex="1"><mxGeometry x="110" y="360" width="120" height="60" as="geometry"/></mxCell><mxCell id="25" style="edgeStyle=orthogonalEdgeStyle;rounded=0;orthogonalLoop=1;jettySize=auto;html=1;" edge="1" parent="1" source="6" target="2"><mxGeometry relative="1" as="geometry"><Array as="points"><mxPoint x="170" y="-10"/><mxPoint x="170" y="-10"/></Array></mxGeometry></mxCell><mxCell id="26" value="Модели данных для диагностики&lt;br&gt;Поставка данных для обучения моделей" style="edgeLabel;html=1;align=center;verticalAlign=middle;resizable=0;points=[];" vertex="1" connectable="0" parent="25"><mxGeometry x="-0.5931" y="-3" relative="1" as="geometry"><mxPoint x="3" y="35" as="offset"/></mxGeometry></mxCell><mxCell id="6" value="ИИ" style="rounded=0;whiteSpace=wrap;html=1;" parent="1" vertex="1"><mxGeometry x="110" y="-60" width="120" height="60" as="geometry"/></mxCell><mxCell id="13" value="Данные об эксплуатации&lt;br&gt;оборудования" style="edgeStyle=orthogonalEdgeStyle;rounded=0;orthogonalLoop=1;jettySize=auto;html=1;" parent="1" source="7" target="2" edge="1"><mxGeometry relative="1" as="geometry"/></mxCell><mxCell id="7" value="Медицинское оборудование" style="rounded=0;whiteSpace=wrap;html=1;" parent="1" vertex="1"><mxGeometry x="-210" y="130" width="120" height="60" as="geometry"/></mxCell><mxCell id="10" value="Разделение контекстов бизнеса" style="text;html=1;strokeColor=none;fillColor=none;align=center;verticalAlign=middle;whiteSpace=wrap;rounded=0;" parent="1" vertex="1"><mxGeometry x="110" y="530" width="230" height="50" as="geometry"/></mxCell></root></mxGraphModel></diagram></mxfile>